<?xml version="1.0" standalone="no"?>
<!DOCTYPE svg PUBLIC "-//W3C//DTD SVG 20010904//EN"
 "http://www.w3.org/TR/2001/REC-SVG-20010904/DTD/svg10.dtd">
<svg version="1.0" xmlns="http://www.w3.org/2000/svg"
 width="366.000000pt" height="366.000000pt" viewBox="0 0 366.000000 366.000000"
 preserveAspectRatio="xMidYMid meet">
<metadata>
Created by potrace 1.14, written by Peter Selinger 2001-2017
</metadata>
<g transform="translate(0.000000,366.000000) scale(0.100000,-0.100000)"
fill="#000000" stroke="none">
<path d="M1705 3614 c-836 -67 -1508 -685 -1641 -1510 -24 -147 -24 -401 0
-548 125 -771 721 -1367 1492 -1492 147 -24 401 -24 548 0 771 125 1367 721
1492 1492 24 147 24 401 0 548 -124 766 -725 1371 -1482 1490 -103 16 -322 27
-409 20z m428 -98 c569 -107 1043 -484 1269 -1011 101 -237 132 -395 132 -675
0 -280 -31 -438 -132 -675 -227 -529 -698 -903 -1275 -1012 -130 -25 -464 -25
-594 0 -714 135 -1257 676 -1389 1384 -25 136 -30 394 -10 533 111 763 684
1344 1446 1464 124 20 428 15 553 -8z"/>
<path d="M1750 3267 c0 -152 11 -277 25 -277 9 0 11 35 8 143 -2 78 -6 161 -9
185 -9 76 -24 44 -24 -51z"/>
<path d="M1826 3343 c-2 -10 -7 -93 -11 -185 -6 -150 -5 -168 9 -168 13 0 16
14 16 86 l0 85 57 -2 c75 -4 82 16 8 26 l-55 6 0 70 0 69 60 0 c64 0 80 13 29
24 -61 12 -107 7 -113 -11z"/>
<path d="M1650 3337 c0 -7 7 -64 16 -126 8 -62 13 -115 11 -117 -2 -3 -35 49
-71 116 -68 121 -103 154 -92 88 3 -18 15 -100 26 -182 11 -82 22 -152 25
-154 19 -19 21 29 5 143 -10 72 -17 131 -16 132 1 1 34 -56 75 -128 40 -71 78
-129 83 -129 12 0 9 43 -18 245 -12 90 -21 125 -31 125 -7 0 -13 -6 -13 -13z"/>
<path d="M2065 3322 c-25 -18 -36 -46 -55 -143 -25 -132 -25 -164 1 -190 29
-29 95 -23 120 11 17 23 59 206 59 256 0 39 -37 74 -78 74 -20 0 -41 -4 -47
-8z m83 -34 c16 -13 15 -41 -2 -125 -8 -37 -17 -85 -20 -106 -5 -24 -16 -43
-31 -53 -23 -15 -27 -15 -50 0 -31 20 -31 45 -6 173 24 124 54 154 109 111z"/>
<path d="M1403 3294 c-3 -9 -3 -82 0 -163 l7 -146 -88 132 c-48 73 -93 133
-99 133 -7 0 -13 -3 -13 -7 1 -26 110 -348 119 -351 18 -6 13 25 -19 126 -17
52 -29 96 -28 98 2 1 32 -42 68 -97 36 -54 70 -97 75 -95 6 2 9 52 7 132 l-2
129 36 -110 c36 -110 48 -134 60 -122 9 8 -98 357 -109 357 -4 0 -10 -7 -14
-16z"/>
<path d="M2286 3258 c-33 -29 -109 -239 -101 -278 9 -37 42 -60 86 -60 34 0
42 5 59 33 29 46 80 206 80 248 0 66 -74 101 -124 57z m78 -21 c27 -20 23 -54
-19 -172 -40 -113 -56 -132 -99 -115 -40 15 -40 46 -1 155 53 146 72 167 119
132z"/>
<path d="M2467 3128 c-25 -46 -63 -119 -85 -164 l-41 -81 45 -21 c56 -28 77
-28 108 1 30 28 126 213 126 245 0 36 -17 60 -60 82 -22 11 -41 20 -44 20 -2
0 -24 -37 -49 -82z m98 26 c37 -24 31 -56 -28 -168 -57 -108 -71 -122 -108
-113 -55 15 -55 17 21 161 39 75 76 136 81 136 5 0 21 -7 34 -16z"/>
<path d="M1064 3170 c-26 -10 -54 -48 -54 -72 0 -26 107 -230 131 -250 48 -40
129 -5 129 56 0 39 -91 221 -126 254 -26 23 -45 26 -80 12z m66 -40 c28 -28
110 -195 110 -224 0 -31 -22 -48 -57 -44 -24 3 -35 17 -85 113 -32 61 -58 118
-58 127 0 18 36 48 57 48 7 0 22 -9 33 -20z"/>
<path d="M2304 2548 c-279 -338 -295 -366 -260 -465 l14 -39 -112 -162 c-61
-89 -114 -162 -117 -162 -5 0 -200 278 -222 316 -4 7 0 29 9 50 21 50 14 148
-16 226 -44 118 -165 243 -295 307 -61 30 -135 41 -161 23 -66 -44 -39 -267
51 -417 78 -129 181 -205 295 -214 l64 -6 118 -165 c65 -90 118 -168 118 -173
0 -12 -81 -123 -192 -262 -56 -70 -126 -143 -193 -200 -58 -49 -115 -104 -126
-121 -23 -38 -24 -80 -3 -134 19 -46 42 -56 107 -46 79 13 91 30 166 231 22
57 52 126 67 152 44 78 206 323 213 323 7 0 167 -244 209 -320 17 -30 48 -102
70 -160 72 -194 88 -215 173 -225 49 -6 60 -4 77 13 22 22 42 80 42 121 0 25
-20 46 -231 246 -94 88 -312 372 -301 391 4 6 59 84 122 173 l115 161 43 0
c97 0 129 36 331 377 97 164 111 193 93 193 -4 0 -77 -99 -162 -220 -85 -120
-161 -219 -169 -220 -21 0 -11 16 149 249 135 196 169 254 141 237 -5 -3 -82
-107 -171 -231 -149 -207 -180 -244 -180 -214 0 6 68 110 151 231 156 228 168
248 151 248 -6 0 -83 -101 -172 -225 -148 -207 -180 -245 -180 -214 0 6 66
106 146 221 80 116 148 216 151 224 15 39 -25 1 -123 -118z"/>
<path d="M642 1063 c-69 -47 -109 -80 -103 -86 5 -5 29 5 61 26 l52 35 27 -30
c22 -25 33 -30 53 -25 38 10 78 46 78 70 0 24 -35 87 -47 86 -5 0 -59 -35
-121 -76z m148 -4 c0 -16 -44 -49 -67 -49 -12 0 -27 9 -33 21 -13 23 -13 23
32 55 l33 23 18 -21 c9 -11 17 -24 17 -29z"/>
<path d="M2886 1132 c-4 -6 5 -34 19 -61 14 -28 25 -53 25 -56 0 -4 -28 -5
-62 -4 -91 4 -85 -17 8 -25 67 -6 84 -12 135 -47 36 -24 60 -35 64 -28 4 6 5
12 4 13 -2 2 -29 19 -59 40 -45 30 -61 48 -91 108 -20 40 -39 66 -43 60z"/>
<path d="M731 950 c-116 -98 -115 -96 -104 -103 5 -3 31 12 58 34 46 38 50 39
62 23 22 -30 15 -58 -24 -91 -21 -17 -35 -35 -30 -39 10 -10 57 25 82 62 10
16 37 38 60 49 55 28 66 62 34 109 -13 20 -28 36 -34 35 -5 0 -52 -36 -104
-79z m125 25 c16 -24 16 -27 -2 -46 -35 -39 -54 -43 -80 -18 l-25 23 38 33
c21 18 41 32 45 33 4 0 15 -11 24 -25z"/>
<path d="M1560 935 l0 -75 33 1 c23 1 26 3 10 6 -18 3 -23 11 -23 33 0 22 5
30 23 33 l22 4 -22 2 c-31 1 -33 51 -3 51 11 0 20 5 20 10 0 6 -13 10 -30 10
l-30 0 0 -75z"/>
<path d="M1630 991 c-13 -25 -5 -46 26 -66 13 -8 24 -22 24 -30 0 -20 -29 -19
-36 0 -4 8 -10 12 -15 9 -14 -8 10 -44 29 -44 22 0 42 19 42 39 0 9 -14 28
-31 42 -19 15 -29 31 -25 37 11 18 36 14 36 -5 0 -13 3 -14 12 -5 8 8 8 15 -2
27 -17 21 -47 19 -60 -4z"/>
<path d="M1705 1000 c4 -6 11 -8 16 -5 5 4 9 -23 9 -64 0 -41 4 -71 10 -71 6
0 10 28 10 65 0 51 3 65 15 65 8 0 15 5 15 10 0 6 -18 10 -41 10 -25 0 -38 -4
-34 -10z"/>
<path d="M1854 995 c-3 -8 -4 -20 -1 -27 4 -8 6 -6 6 5 1 23 31 22 31 -1 0
-11 -9 -29 -20 -42 -11 -13 -20 -34 -20 -47 0 -20 5 -23 33 -22 21 1 25 3 12
6 -34 8 -36 18 -10 53 l25 34 0 -28 c0 -37 17 -66 39 -66 23 0 31 19 31 71 0
21 5 39 10 39 6 0 10 -25 10 -55 0 -30 5 -55 10 -55 6 0 10 9 10 20 0 15 7 20
25 20 18 0 25 -5 25 -20 0 -11 5 -20 10 -20 6 0 10 32 10 75 0 41 -4 75 -8 75
-5 0 -21 -21 -35 -47 l-27 -48 0 48 c0 48 -6 56 -29 35 -11 -10 -14 -10 -18 0
-7 17 -40 15 -51 -4 -8 -15 -10 -15 -15 0 -8 20 -46 21 -53 1z m106 -60 c0
-42 -3 -55 -15 -55 -12 0 -15 13 -15 55 0 42 3 55 15 55 12 0 15 -13 15 -55z
m106 -12 c-11 -11 -17 4 -9 23 7 18 8 18 11 1 2 -10 1 -21 -2 -24z"/>
<path d="M2739 939 c-16 -17 -26 -35 -23 -40 3 -5 -1 -9 -8 -9 -8 0 -28 -15
-46 -33 l-32 -33 94 -99 94 -100 38 37 c45 44 41 61 -6 22 l-32 -27 -36 36
-36 37 29 30 c38 39 24 52 -16 14 l-31 -29 -34 40 -35 39 35 34 34 35 93 -82
c52 -44 97 -81 101 -81 19 0 5 20 -38 55 -43 36 -44 38 -28 56 24 27 50 24 94
-11 21 -17 41 -26 44 -21 8 12 -61 70 -91 77 -12 3 -25 14 -28 25 -9 27 -54
59 -82 59 -15 0 -37 -13 -54 -31z m96 -14 c30 -29 31 -36 7 -65 l-18 -23 -37
33 c-42 36 -44 42 -21 64 22 22 41 20 69 -9z"/>
<path d="M827 832 l-97 -98 40 -39 c44 -43 56 -37 13 7 l-27 28 39 40 39 40
28 -27 c36 -34 50 -22 16 15 l-26 27 34 39 34 40 33 -30 c17 -16 33 -30 35
-31 2 0 -33 -48 -77 -105 -45 -56 -81 -106 -81 -110 0 -21 23 -2 66 52 26 33
48 60 50 60 2 0 -6 -24 -17 -52 -12 -29 -25 -64 -30 -76 -17 -45 2 -41 78 15
l76 56 -52 -68 c-50 -67 -59 -85 -43 -85 11 0 172 207 172 220 0 17 -10 12
-101 -55 -49 -36 -91 -65 -94 -65 -2 0 14 43 36 97 21 53 39 101 39 107 -1 6
-20 30 -43 54 l-42 42 -98 -98z"/>
<path d="M2610 811 c0 -6 18 -51 40 -102 22 -51 39 -93 37 -95 -1 -1 -38 27
-82 62 -79 63 -95 72 -95 55 0 -13 211 -182 220 -176 5 3 -12 54 -37 113 -25
59 -49 117 -54 130 -8 22 -29 31 -29 13z"/>
<path d="M1124 698 c-15 -24 -46 -72 -69 -108 -23 -36 -44 -70 -48 -77 -4 -6
-3 -14 2 -18 9 -5 113 144 150 214 22 41 -9 31 -35 -11z"/>
<path d="M2482 713 c8 -29 137 -223 148 -223 17 0 12 9 -62 126 -68 106 -97
139 -86 97z"/>
<path d="M1173 707 c-6 -6 -31 -51 -56 -99 -54 -99 -60 -142 -23 -159 49 -23
69 -6 130 106 54 98 64 127 37 111 -5 -4 -31 -47 -57 -97 -27 -49 -54 -94 -60
-100 -15 -12 -54 5 -54 23 0 6 25 58 55 114 30 57 51 105 46 108 -5 3 -13 0
-18 -7z"/>
<path d="M2376 662 c-5 -8 105 -215 125 -236 11 -12 99 34 99 51 0 17 -4 16
-42 -7 -18 -11 -36 -20 -40 -20 -4 0 -32 47 -63 105 -57 105 -69 122 -79 107z"/>
<path d="M1281 628 c-5 -13 -25 -63 -44 -113 -19 -49 -38 -98 -42 -107 -5 -12
-2 -18 8 -18 9 0 25 28 42 75 15 41 29 75 31 75 2 0 2 -17 -1 -37 -14 -112
-15 -143 -6 -143 5 0 31 28 57 63 66 87 68 88 44 27 -12 -30 -26 -66 -31 -79
-6 -16 -6 -28 0 -34 7 -7 13 -2 20 14 5 13 27 71 50 129 22 58 41 108 41 113
0 22 -26 -2 -81 -75 -83 -111 -82 -110 -75 -63 15 106 18 195 7 195 -6 0 -15
-10 -20 -22z"/>
<path d="M2303 633 c-18 -9 -33 -20 -33 -25 0 -18 104 -248 112 -248 17 0 88
41 88 50 0 13 -1 13 -44 -5 -35 -15 -36 -15 -49 12 -31 61 -31 70 8 84 19 7
35 19 35 26 0 16 -9 16 -40 -2 -14 -8 -30 -14 -36 -15 -11 0 -50 88 -43 94 2
1 19 8 37 15 17 8 32 17 32 22 0 14 -31 10 -67 -8z"/>
<path d="M2158 583 c-10 -2 -18 -7 -18 -10 0 -21 84 -263 91 -263 5 0 25 6 44
14 48 20 53 52 25 140 -36 115 -44 126 -88 125 -20 -1 -45 -3 -54 -6z m80 -25
c5 -7 22 -51 37 -98 l26 -85 -22 -18 c-12 -10 -27 -16 -33 -14 -5 2 -25 50
-43 107 -24 78 -29 106 -20 112 18 12 43 9 55 -4z"/>
<path d="M1537 548 c-17 -68 -47 -251 -43 -255 12 -13 24 12 31 63 l7 56 44
-6 c27 -3 44 -2 44 5 0 10 -7 13 -53 23 -23 5 -26 10 -22 31 17 81 12 76 54
69 23 -4 41 -2 45 4 4 7 -8 14 -31 17 -21 4 -45 9 -54 11 -11 3 -19 -3 -22
-18z"/>
<path d="M1947 543 c-15 -4 -18 -11 -13 -36 3 -18 10 -70 16 -117 15 -123 18
-132 38 -126 9 2 29 7 44 10 44 10 50 34 37 136 -16 127 -41 154 -122 133z
m78 -33 c4 -6 11 -50 18 -99 9 -72 8 -92 -2 -105 -20 -24 -50 -20 -56 7 -6 28
-25 174 -25 193 0 16 55 20 65 4z"/>
<path d="M1666 517 c-9 -13 -18 -61 -22 -118 -6 -90 -5 -98 15 -118 40 -40 95
-16 105 46 12 74 10 181 -3 197 -21 25 -78 20 -95 -7z m74 -12 c9 -11 11 -38
6 -101 -4 -47 -10 -92 -13 -100 -7 -18 -47 -18 -62 0 -16 19 1 195 20 207 20
13 35 11 49 -6z"/>
<path d="M1811 514 c-23 -29 -25 -70 -12 -177 8 -64 19 -77 68 -77 45 0 53 21
53 139 0 88 -3 104 -20 121 -28 28 -64 25 -89 -6z m80 -34 c12 -43 10 -175 -3
-188 -18 -18 -46 -14 -58 7 -11 22 -14 194 -3 205 16 16 57 1 64 -24z"/>
</g>
</svg>
